<svg id="Layer_1" enable-background="new 0 0 256 256" height="512" viewBox="0 0 256 256" width="512" xmlns="http://www.w3.org/2000/svg"><g><g><path d="m227.243 244.409h-198.483v-2.348c0-54.81 44.432-99.242 99.242-99.242 54.81 0 99.242 44.432 99.242 99.242v2.348z" fill="#ffe2e2"/><path d="m128.002 161.486-12.931 75h25.862z" fill="#ff4a73"/><path d="m151.216 244.409h-46.429v-4.708c0-12.821 10.394-23.215 23.215-23.215 12.821 0 23.215 10.394 23.215 23.215v4.708z" fill="#5fcdff"/><path d="m135.502 143.1c-51.31 3.84-91.74 46.68-91.74 98.96v2.35h-15v-2.35c0-54.81 44.43-99.24 99.24-99.24 2.52 0 5.03.09 7.5.28z" fill="#ffefee"/><path d="m227.242 242.06v2.35h-15v-2.35c0-27.4-11.11-52.22-29.07-70.17-16.3-16.31-38.25-26.96-62.67-28.79 2.47-.19 4.98-.28 7.5-.28 27.4 0 52.22 11.11 70.17 29.07 17.96 17.949 29.07 42.77 29.07 70.17z" fill="#ffcfcf"/><path d="m135.502 217.74c-9.14 3.11-15.71 11.77-15.71 21.96v4.71h-15v-4.71c0-12.82 10.39-23.21 23.21-23.21 2.63 0 5.15.44 7.5 1.25z" fill="#73d7f9"/><g><g><path d="m77.883 139.742v.44c0 2.506-2.034 4.54-4.54 4.54h-59.713c-2.506 0-4.54-2.034-4.54-4.54v-.44c0-10.915 5.08-20.644 13.008-26.942.536-.427 1.081-.835 1.639-1.226 3.519-2.474 7.523-4.304 11.841-5.321 2.538-.595 5.185-.913 7.904-.913h.009c2.742 0 5.412.322 7.968.926 4.295 1.022 8.272 2.847 11.777 5.308.558.39 1.108.799 1.639 1.226 1.026.813 2.007 1.689 2.933 2.615 6.225 6.225 10.075 14.824 10.075 24.327z" fill="#5fcdff"/><path d="m19.189 74.232v6.796c0 13.363 10.934 24.297 24.297 24.297 13.363 0 24.297-10.934 24.297-24.297v-6.796c0-13.359-10.785-24.212-24.144-24.296-13.478-.085-24.45 10.817-24.45 24.296z" fill="#ffbb98"/><path d="m77.887 139.746v.44c0 2.506-2.036 4.542-4.541 4.542h-14.682c2.506 0 4.541-2.036 4.541-4.542v-.44c0-9.504-3.856-18.107-10.081-24.332-.92-.92-1.909-1.801-2.926-2.613-.538-.431-1.086-.832-1.644-1.223-3.504-2.466-7.478-4.287-11.774-5.305-.215-.049-.431-.098-.646-.147 2.369-.509 4.825-.783 7.351-.783h.01c2.741 0 5.413.323 7.967.93 4.297 1.018 8.27 2.838 11.774 5.305.558.391 1.106.793 1.644 1.223 1.018.812 2.006 1.693 2.926 2.613 6.224 6.224 10.081 14.828 10.081 24.332z" fill="#30b6ff"/><path d="m50.814 106.125c-.186.039-.372.088-.558.127-4.316 1.018-8.319 2.848-11.843 5.324-.558.391-1.096.793-1.635 1.223-7.928 6.293-13.008 16.032-13.008 26.945v.44c0 2.506 2.036 4.542 4.541 4.542h-14.68c-2.506 0-4.541-2.036-4.541-4.542v-.44c0-10.913 5.08-20.652 13.008-26.945.538-.431 1.077-.832 1.635-1.223 3.524-2.476 7.527-4.306 11.843-5.324 2.545-.597 5.187-.91 7.908-.91h.01c2.505 0 4.961.274 7.32.783z" fill="#73d7f9"/><path d="m50.824 104.177c-2.32.744-4.786 1.145-7.341 1.145-13.36 0-24.293-10.933-24.293-24.293v-6.803c0-13.419 10.884-24.293 24.283-24.293h.166c2.506.02 4.933.411 7.204 1.125-9.837 3.103-16.972 12.303-16.972 23.167v6.803c.001 10.807 7.155 20.027 16.953 23.149z" fill="#ffcaa6"/><path d="m67.786 74.227v6.803c0 6.685-2.731 12.753-7.135 17.158-4.404 4.404-10.483 7.135-17.167 7.135-2.555 0-5.021-.401-7.341-1.145 3.749-1.184 7.106-3.269 9.827-5.99 4.404-4.404 7.135-10.473 7.135-17.158v-6.803c0-10.845-7.116-20.045-16.942-23.167 2.31-.734 4.767-1.125 7.311-1.125h.166c13.36.087 24.146 10.942 24.146 24.292z" fill="#ffaa80"/><path d="m63.378 40.728h-21.467c-6.891 0-12.61 5.007-13.726 11.58-.205-3.517-3.115-6.309-6.684-6.309-3.702 0-6.704 3.001-6.704 6.704v14.343c0 1.174.952 2.126 2.126 2.126h53.124c1.174 0 2.126-.952 2.126-2.126v-17.522c.001-4.858-3.937-8.796-8.795-8.796z" fill="#b76c6c"/></g><g><path d="m162.397 110.605v.44c0 2.506-2.034 4.54-4.54 4.54h-59.714c-2.506 0-4.54-2.034-4.54-4.54v-.44c0-10.915 5.08-20.644 13.008-26.942.536-.427 1.081-.835 1.639-1.226 3.519-2.474 7.523-4.304 11.841-5.321 2.538-.595 5.185-.913 7.904-.913h.009c2.742 0 5.412.322 7.968.926 4.295 1.022 8.272 2.847 11.777 5.308.558.39 1.108.799 1.639 1.226 1.026.813 2.007 1.689 2.933 2.615 6.226 6.225 10.076 14.824 10.076 24.327z" fill="#5fcdff"/><path d="m103.703 45.095v6.796c0 13.363 10.934 24.297 24.297 24.297 13.363 0 24.297-10.934 24.297-24.297v-6.796c0-13.359-10.785-24.212-24.144-24.296-13.478-.085-24.45 10.817-24.45 24.296z" fill="#ffbb98"/><path d="m162.4 110.608v.44c0 2.506-2.036 4.542-4.541 4.542h-14.681c2.506 0 4.541-2.036 4.541-4.542v-.44c0-9.504-3.856-18.107-10.081-24.332-.92-.92-1.909-1.801-2.926-2.613-.538-.431-1.086-.832-1.644-1.223-3.504-2.467-7.478-4.287-11.774-5.305-.215-.049-.431-.098-.646-.147 2.369-.509 4.825-.783 7.351-.783h.01c2.741 0 5.413.323 7.967.93 4.297 1.018 8.27 2.838 11.774 5.305.558.391 1.106.793 1.644 1.223 1.018.812 2.006 1.693 2.926 2.613 6.224 6.225 10.08 14.829 10.08 24.332z" fill="#30b6ff"/><path d="m135.328 76.988c-.186.039-.372.088-.558.127-4.316 1.018-8.319 2.848-11.843 5.324-.558.391-1.096.793-1.635 1.223-7.928 6.293-13.008 16.032-13.008 26.945v.44c0 2.506 2.036 4.542 4.541 4.542h-14.68c-2.506 0-4.541-2.036-4.541-4.542v-.44c0-10.913 5.08-20.652 13.008-26.945.538-.431 1.077-.832 1.635-1.223 3.524-2.476 7.527-4.306 11.843-5.324 2.545-.597 5.187-.91 7.908-.91h.01c2.504 0 4.961.274 7.32.783z" fill="#73d7f9"/><path d="m135.338 75.04c-2.32.744-4.786 1.145-7.341 1.145-13.36 0-24.293-10.933-24.293-24.293v-6.802c0-13.419 10.884-24.293 24.283-24.293h.166c2.506.02 4.933.411 7.204 1.125-9.837 3.103-16.972 12.303-16.972 23.167v6.803c0 10.806 7.155 20.026 16.953 23.148z" fill="#ffcaa6"/><path d="m152.3 45.09v6.803c0 6.685-2.731 12.753-7.135 17.158s-10.483 7.135-17.167 7.135c-2.555 0-5.021-.401-7.341-1.145 3.749-1.184 7.106-3.269 9.827-5.99 4.404-4.404 7.135-10.473 7.135-17.158v-6.803c0-10.845-7.116-20.045-16.942-23.167 2.31-.734 4.767-1.125 7.311-1.125h.166c13.36.087 24.146 10.942 24.146 24.292z" fill="#ffaa80"/><path d="m147.891 11.59h-21.466c-6.891 0-12.61 5.007-13.726 11.58-.205-3.517-3.115-6.309-6.684-6.309-3.702 0-6.704 3.001-6.704 6.704v14.343c0 1.174.952 2.126 2.126 2.126h53.124c1.174 0 2.126-.952 2.126-2.126v-17.521c.001-4.858-3.937-8.797-8.796-8.797z" fill="#b76c6c"/></g><g><path d="m246.91 139.742v.44c0 2.506-2.034 4.54-4.54 4.54h-59.713c-2.506 0-4.54-2.034-4.54-4.54v-.44c0-10.915 5.08-20.644 13.008-26.942.536-.427 1.081-.835 1.639-1.226 3.519-2.474 7.523-4.304 11.841-5.321 2.538-.595 5.185-.913 7.904-.913h.009c2.742 0 5.412.322 7.968.926 4.295 1.022 8.272 2.847 11.777 5.308.558.39 1.108.799 1.639 1.226 1.026.813 2.007 1.689 2.933 2.615 6.225 6.225 10.075 14.824 10.075 24.327z" fill="#5fcdff"/><path d="m188.217 74.232v6.796c0 13.363 10.934 24.297 24.297 24.297 13.363 0 24.297-10.934 24.297-24.297v-6.796c0-13.359-10.785-24.212-24.144-24.296-13.479-.085-24.45 10.817-24.45 24.296z" fill="#ffbb98"/><path d="m246.914 139.746v.44c0 2.506-2.036 4.542-4.541 4.542h-14.681c2.506 0 4.541-2.036 4.541-4.542v-.44c0-9.504-3.856-18.107-10.081-24.332-.92-.92-1.909-1.801-2.926-2.613-.538-.431-1.086-.832-1.644-1.223-3.504-2.466-7.478-4.287-11.774-5.305-.215-.049-.431-.098-.646-.147 2.369-.509 4.825-.783 7.351-.783h.01c2.741 0 5.413.323 7.967.93 4.297 1.018 8.271 2.838 11.774 5.305.558.391 1.106.793 1.644 1.223 1.018.812 2.006 1.693 2.926 2.613 6.224 6.224 10.08 14.828 10.08 24.332z" fill="#30b6ff"/><path d="m219.841 106.125c-.186.039-.372.088-.558.127-4.316 1.018-8.319 2.848-11.843 5.324-.558.391-1.096.793-1.635 1.223-7.928 6.293-13.008 16.032-13.008 26.945v.44c0 2.506 2.036 4.542 4.541 4.542h-14.681c-2.506 0-4.541-2.036-4.541-4.542v-.44c0-10.913 5.08-20.652 13.008-26.945.538-.431 1.077-.832 1.635-1.223 3.524-2.476 7.527-4.306 11.843-5.324 2.545-.597 5.188-.91 7.908-.91h.01c2.506 0 4.963.274 7.321.783z" fill="#73d7f9"/><path d="m219.851 104.177c-2.32.744-4.786 1.145-7.341 1.145-13.36 0-24.293-10.933-24.293-24.293v-6.803c0-13.419 10.884-24.293 24.283-24.293h.166c2.506.02 4.933.411 7.204 1.125-9.837 3.103-16.972 12.303-16.972 23.167v6.803c.001 10.807 7.156 20.027 16.953 23.149z" fill="#ffcaa6"/><path d="m236.813 74.227v6.803c0 6.685-2.731 12.753-7.135 17.158-4.404 4.404-10.483 7.135-17.167 7.135-2.555 0-5.021-.401-7.341-1.145 3.749-1.184 7.106-3.269 9.827-5.99 4.404-4.404 7.135-10.473 7.135-17.158v-6.803c0-10.845-7.116-20.045-16.942-23.167 2.31-.734 4.767-1.125 7.311-1.125h.166c13.36.087 24.146 10.942 24.146 24.292z" fill="#ffaa80"/><path d="m232.405 40.728h-21.466c-6.891 0-12.61 5.007-13.726 11.58-.205-3.517-3.115-6.309-6.684-6.309-3.702 0-6.704 3.001-6.704 6.704v14.343c0 1.174.952 2.126 2.126 2.126h53.124c1.174 0 2.126-.952 2.126-2.126v-17.522c.001-4.858-3.938-8.796-8.796-8.796z" fill="#b76c6c"/></g></g></g><g fill="#5f266d"><path d="m81.883 140.183v-.44c0-16.071-9.712-29.279-22.824-35.108 11.53-7.658 13.329-17.94 12.693-31.708 2.551-.74 4.423-3.094 4.423-5.88v-17.523c0-7.057-5.741-12.797-12.797-12.797h-21.467c-5.827 0-11.062 2.767-14.351 7.158-1.727-1.191-3.817-1.887-6.059-1.887-5.902 0-10.704 4.802-10.704 10.703v14.344c0 2.788 1.873 5.142 4.426 5.881-.062 1.352-.022 1.404-.034 8.103 0 9.85 5.063 18.536 12.719 23.604-13.552 6.021-22.82 19.489-22.82 35.108v.44c0 4.709 3.831 8.54 8.54 8.54h59.713c4.711.002 8.542-3.829 8.542-8.538zm-62.212-75.011h-.873v-12.47c0-1.49 1.213-2.703 2.704-2.703 1.425 0 2.607 1.116 2.69 2.542.119 2.03 1.743 3.648 3.773 3.761 2.046.113 3.823-1.319 4.163-3.324.812-4.78 4.926-8.25 9.783-8.25h21.466c2.645 0 4.797 2.152 4.797 4.797v15.647c-18.801 0-35.544 0-48.383 0-.04-.001-.079-.001-.12 0zm3.519 15.857c.027-5.59-.049-5.85.055-7.857h40.485c.464 8.86.385 15.895-5.908 22.188-12.751 12.749-34.632 3.7-34.632-14.331zm-10.1 59.154v-.44c0-26.865 32.67-40.729 51.89-21.498 5.742 5.741 8.903 13.376 8.903 21.498v.44c0 .298-.243.54-.541.54h-59.712c-.298 0-.54-.243-.54-.54z"/><path d="m98.143 119.586h59.713c4.709 0 8.54-3.831 8.54-8.54v-.44c0-15.736-9.407-29.144-22.823-35.108 7.685-5.106 12.726-13.751 12.726-23.604-.012-6.714.028-6.763-.034-8.104 2.551-.741 4.423-3.094 4.423-5.881v-17.522c0-7.056-5.741-12.796-12.797-12.796h-21.466c-5.827 0-11.062 2.767-14.351 7.157-1.727-1.19-3.817-1.886-6.059-1.886-5.902 0-10.704 4.802-10.704 10.703v14.343c0 2.788 1.873 5.143 4.426 5.882-.062 1.355-.022 1.391-.034 8.103 0 9.849 5.062 18.535 12.719 23.604-13.504 6.001-22.819 19.443-22.819 35.109v.44c0 4.709 3.831 8.54 8.54 8.54zm5.169-96.021c0-1.49 1.213-2.703 2.704-2.703 1.425 0 2.607 1.116 2.69 2.542.119 2.03 1.743 3.649 3.773 3.761 2.045.12 3.823-1.319 4.163-3.324.812-4.78 4.926-8.25 9.783-8.25h21.466c2.645 0 4.797 2.151 4.797 4.796v15.648c-6.584 0-8.799 0-9.451 0-.165 0-.231 0-.241 0-1.227 0-8.06 0-39.684 0zm4.392 28.328c.028-5.602-.049-5.846.055-7.857h40.485c.488 9.32.213 16.065-5.908 22.187-12.751 12.751-34.632 3.699-34.632-14.33zm-10.101 58.712c0-26.876 32.654-40.713 51.89-21.499 9.588 9.587 8.864 21.737 8.903 21.939 0 1.064 2.155.289-60.253.54-.298 0-.54-.242-.54-.54z"/><path d="m228.087 104.634c1.572-1.044 3.053-2.252 4.42-3.619 5.356-5.356 8.307-12.454 8.307-19.986v-6.802c0-.433-.014-.867-.034-1.302 2.551-.74 4.423-3.094 4.423-5.88v-17.521c0-7.057-5.741-12.797-12.797-12.797h-21.466c-5.827 0-11.062 2.767-14.351 7.158-1.727-1.191-3.817-1.887-6.059-1.887-5.902 0-10.704 4.802-10.704 10.703v14.344c0 2.788 1.874 5.142 4.426 5.881-.062 1.346-.022 1.432-.034 8.103 0 9.85 5.063 18.536 12.719 23.604-13.439 5.971-22.82 19.381-22.82 35.108v.44c0 4.709 3.831 8.54 8.54 8.54h59.713c4.709 0 8.54-3.831 8.54-8.54v-.44c0-15.731-9.404-29.141-22.823-35.107zm-40.262-51.932c0-1.49 1.213-2.703 2.704-2.703 1.425 0 2.607 1.116 2.69 2.542.119 2.03 1.743 3.648 3.773 3.761 2.044.113 3.823-1.319 4.163-3.324.812-4.78 4.926-8.25 9.783-8.25h21.466c2.645 0 4.797 2.152 4.797 4.797v15.647c-6.57 0-8.817 0-9.493 0-.179 0-.25 0-.259 0-1.292 0-8.263 0-39.624 0zm4.393 28.327c.028-5.613-.049-5.842.055-7.857h40.485c.111 2.122.01-1.299.055 7.857 0 5.395-2.118 10.484-5.964 14.33-12.751 12.75-34.631 3.701-34.631-14.33zm50.692 59.154c0 .298-.242.54-.54.54h-59.713c-.298 0-.54-.242-.54-.54v-.44c0-26.966 32.749-40.64 51.89-21.498 5.742 5.741 8.903 13.376 8.903 21.498z"/><path d="m128.002 138.819c-56.928 0-103.242 46.314-103.242 103.242v2.348c0 2.209 1.791 4 4 4h198.483c2.209 0 4-1.791 4-4v-2.348c0-56.927-46.314-103.242-103.241-103.242zm19.215 101.59h-38.43v-.708c0-10.595 8.62-19.215 19.215-19.215s19.215 8.62 19.215 19.215zm-24.022-27.489 4.806-27.883 4.806 27.883c-3.111-.557-6.269-.598-9.612 0zm32.022 27.489c-.04-.142 1.076-15.862-13.748-24.342l-9.525-55.257c-.76-4.409-7.125-4.405-7.884 0l-9.525 55.257c-14.888 8.517-13.712 24.215-13.748 24.342h-68.013c.884-51.759 43.262-93.59 95.228-93.59s94.344 41.831 95.228 93.59z"/><path d="m199.371 225.296c.288 1.341.527 2.689.711 4.008.279 2 1.993 3.447 3.957 3.447.184 0 .371-.014.558-.039 2.188-.306 3.714-2.327 3.408-4.516-.211-1.51-.484-3.051-.813-4.58-.464-2.16-2.597-3.534-4.75-3.071-2.16.464-3.535 2.591-3.071 4.751z"/><path d="m181.177 183.503c-1.655 1.463-1.812 3.99-.349 5.646.083.094 8.296 9.466 14.104 22.688.658 1.5 2.125 2.393 3.664 2.393.537 0 1.083-.108 1.607-.339 2.022-.889 2.942-3.248 2.053-5.271-6.305-14.354-15.064-24.35-15.434-24.768-1.462-1.656-3.99-1.813-5.645-.349z"/></g></g></svg>